<?xml version="1.0" standalone="no"?>
<!DOCTYPE svg PUBLIC "-//W3C//DTD SVG 20010904//EN"
 "http://www.w3.org/TR/2001/REC-SVG-20010904/DTD/svg10.dtd">
<svg version="1.0" xmlns="http://www.w3.org/2000/svg"
 width="1024.000000pt" height="1024.000000pt" viewBox="0 0 1024.000000 1024.000000"
 preserveAspectRatio="xMidYMid meet">
<metadata>
Created by potrace 1.14, written by Peter Selinger 2001-2017
</metadata>
<g transform="translate(0.000000,1024.000000) scale(0.100000,-0.100000)"
fill="#000000" stroke="none">
<path d="M0 6746 c0 -3320 1 -3495 17 -3499 17 -4 17 -5 1 -6 -17 -1 -18 -85
-18 -1621 l0 -1620 5120 0 5120 0 0 1573 0 1572 -395 1 c-218 1 -398 4 -401 7
-4 3 -9 26 -11 52 l-6 45 407 0 406 0 -2 542 -3 543 -65 5 -65 6 55 4 c37 4
54 9 52 18 -1 6 5 12 13 12 24 0 17 28 -7 33 l-23 4 23 2 22 1 0 265 0 264
-210 3 c-168 2 -211 0 -215 -10 -3 -8 -5 -43 -5 -78 0 -62 -1 -64 -25 -64 -16
0 -25 6 -25 16 0 8 5 12 10 9 6 -3 10 0 11 7 0 7 2 31 4 53 3 32 2 35 -5 15
-4 -14 -9 -20 -9 -15 -1 6 -6 3 -12 -5 -9 -12 -10 -11 -6 7 3 13 1 26 -4 29
-5 3 -7 10 -3 15 3 5 10 7 15 4 5 -4 9 1 9 9 0 9 -2 16 -4 16 -7 0 -53 -47
-59 -61 -3 -8 -6 2 -6 21 l-1 35 -115 -3 -115 -3 0 50 0 51 385 0 385 0 0 540
0 540 -237 -2 -237 -3 2 -55 c2 -41 0 -51 -8 -38 -5 9 -18 14 -27 12 -11 -3
-23 3 -31 16 -11 18 -10 20 8 20 17 0 19 3 10 19 -13 26 -13 34 2 25 7 -4 8
-3 4 4 -9 15 -73 15 -82 0 -5 -7 -3 -8 6 -3 9 5 11 4 6 -3 -4 -7 -20 -12 -35
-12 -36 0 -38 -30 -2 -31 l26 -1 -25 -7 c-14 -5 -28 -6 -32 -4 -13 7 -9 51 5
56 6 3 -188 5 -433 4 l-445 -2 -5 -55 -5 -55 -92 -3 -93 -3 0 116 0 115 660 0
c479 0 660 -3 660 -11 0 -8 38 -9 138 -3 75 4 164 8 197 9 l60 0 3 2003 2
2002 -5120 0 -5120 0 0 -3494z m2593 2997 c-7 -2 -19 -2 -25 0 -7 3 -2 5 12 5
14 0 19 -2 13 -5z m327 3 c0 -2 -11 -6 -25 -8 -14 -3 -25 -1 -25 3 0 5 11 9
25 9 14 0 25 -2 25 -4z m1550 -51 l0 -55 -105 0 -105 0 0 -60 0 -60 -182 0
-183 0 0 57 0 58 -513 0 c-281 0 -512 3 -512 8 0 4 19 8 43 8 44 1 113 16 87
18 -11 1 -12 3 -3 9 14 9 5 26 -17 35 -17 6 54 9 250 9 l135 0 -147 7 c-82 4
-151 11 -155 14 -3 4 312 7 700 7 l707 0 0 -55z m2777 43 c6 -7 11 -32 12 -55
l1 -43 -438 -1 c-240 0 -508 -2 -594 -5 l-158 -5 0 60 0 61 584 0 c455 0 586
-3 593 -12z m576 5 c-13 -2 -33 -2 -45 0 -13 2 -3 4 22 4 25 0 35 -2 23 -4z
m160 0 c-13 -2 -33 -2 -45 0 -13 2 -3 4 22 4 25 0 35 -2 23 -4z m-520 -33 c-3
-11 -2 -28 1 -37 6 -15 8 -15 16 -3 9 13 10 13 10 0 0 -13 54 -15 425 -15 234
0 425 -3 425 -7 0 -4 -200 -7 -445 -8 l-445 0 0 50 c0 28 4 49 9 46 5 -3 7
-15 4 -26z m-4803 -30 l0 -40 -95 0 c-52 0 -95 4 -95 9 0 4 12 6 28 4 26 -4
26 -4 8 11 -11 9 -16 16 -11 16 5 0 17 -7 27 -17 10 -9 18 -11 18 -5 0 6 23
12 53 14 47 3 52 5 51 26 0 12 3 22 8 22 4 0 8 -18 8 -40z m5158 33 c-10 -2
-28 -2 -40 0 -13 2 -5 4 17 4 22 1 32 -1 23 -4z m-4938 -17 c0 -3 -4 -8 -10
-11 -5 -3 -10 -1 -10 4 0 6 5 11 10 11 6 0 10 -2 10 -4z m4833 -3 c-29 -2 -77
-2 -105 0 -29 2 -6 3 52 3 58 0 81 -1 53 -3z m154 1 c-3 -3 -12 -4 -19 -1 -8
3 -5 6 6 6 11 1 17 -2 13 -5z m-5430 -26 c7 19 23 14 23 -7 0 -13 -7 -18 -25
-18 -19 0 -25 5 -25 21 0 18 2 19 11 6 8 -11 12 -12 16 -2z m5323 2 c0 -11
-43 -12 -115 0 -47 7 -45 7 33 9 49 0 82 -3 82 -9z m-6255 -20 c4 -6 -29 -9
-92 -8 l-98 2 90 6 c50 3 91 7 92 8 1 1 5 -2 8 -8z m895 0 c0 -6 -86 -9 -242
-8 l-243 2 205 6 c113 3 222 7 243 8 20 1 37 -2 37 -8z m2692 -211 c2 -49 -1
-94 -6 -100 -11 -10 -319 -12 -378 -3 l-38 7 0 93 0 94 209 0 210 0 3 -91z
m398 -9 l0 -100 -110 0 c-67 0 -110 4 -110 10 0 6 -7 10 -15 10 -8 0 -15 5
-15 11 0 5 4 8 9 5 10 -7 26 138 16 154 -4 7 32 10 109 10 l116 0 0 -100z
m-830 -111 c0 -7 -8 -18 -17 -25 -17 -13 -17 -14 0 -8 17 6 18 1 15 -67 l-3
-74 -87 -3 -86 -3 -7 54 c-4 30 -5 63 -2 73 3 11 5 0 6 -23 l1 -43 52 3 52 2
1 43 c0 40 -1 43 -24 37 -21 -5 -23 -4 -12 9 8 10 32 17 60 18 l46 1 -50 7
-50 7 53 1 c33 1 52 -2 52 -9z m1218 -271 c2 -43 7 -78 12 -78 6 0 10 5 10 10
0 6 7 10 15 10 8 0 15 4 15 9 0 5 -7 14 -15 21 -8 7 -15 20 -14 29 0 11 3 10
11 -6 9 -18 20 -23 49 -23 27 0 39 -5 42 -17 2 -10 3 -5 2 12 -1 16 2 42 7 58
8 22 13 25 24 16 11 -9 14 -7 14 10 0 12 6 21 15 21 18 0 21 -57 4 -92 -7 -17
-7 -32 0 -51 l11 -28 200 3 200 3 0 -102 0 -103 100 0 100 0 0 -100 0 -100 95
0 95 0 0 -210 c0 -203 -1 -210 -20 -210 -11 0 -20 -6 -21 -12 0 -10 -2 -10 -6
0 -3 8 -28 12 -74 12 l-68 0 3 -52 c2 -29 5 -73 6 -98 1 -25 5 -36 7 -25 3 11
10 24 17 28 8 6 8 10 -1 14 -9 3 -12 24 -11 61 l1 57 7 -55 c4 -30 7 -43 8
-27 2 25 5 27 42 27 40 0 55 15 23 23 -10 2 -8 3 5 2 12 -1 22 2 22 6 0 5 5 9
12 9 9 0 9 -3 0 -12 -15 -15 -16 -48 -2 -48 6 0 10 10 11 23 1 19 2 18 9 -6 5
-16 6 -35 3 -43 -3 -8 1 -14 9 -14 10 0 15 12 16 35 1 20 5 41 8 47 5 7 2 8
-6 3 -10 -6 -11 -4 -4 6 5 8 9 19 9 24 0 6 40 11 95 13 l95 3 -2 -168 c-1 -92
1 -187 4 -210 l5 -43 94 0 94 0 0 -197 c0 -109 -3 -208 -6 -220 l-6 -23 -1189
0 -1189 0 0 110 0 110 95 0 95 0 2 -107 2 -108 3 108 4 107 99 0 100 0 0 108
0 107 -100 -2 -100 -2 -2 112 -2 112 -3 -107 -4 -108 -194 0 -195 0 0 111 0
110 94 -2 c51 -1 99 2 106 6 6 4 99 4 206 0 l194 -7 0 106 0 106 -100 0 -100
0 0 103 0 104 100 -5 100 -4 0 106 0 107 -202 -1 -203 -2 1 99 c0 54 1 145 2
203 l2 105 95 -3 95 -3 2 -77 c0 -42 1 -85 0 -94 -2 -16 9 -18 103 -18 l105 0
0 101 0 102 39 -7 c21 -3 66 -3 100 0 l61 7 0 77 c0 42 3 80 7 84 4 3 95 5
202 4 l196 -3 3 -77z m-605 0 c-4 -96 -5 -97 -50 -93 -21 2 -64 3 -95 4 l-58
1 0 80 0 80 103 0 103 0 -3 -72z m-3570 45 c-35 -2 -91 -2 -125 0 -35 2 -7 3
62 3 69 0 97 -1 63 -3z m197 -10 c0 -15 -2 -15 -9 -4 -5 8 -16 11 -25 8 -9 -4
-16 -2 -16 3 0 6 11 10 25 10 17 0 25 -5 25 -17z m1380 -77 c0 -52 -3 -101 -6
-110 -5 -13 -22 -16 -85 -16 l-79 0 0 29 c0 18 6 31 17 35 15 6 15 9 3 16 -8
5 -17 7 -21 4 -4 -2 -6 2 -5 9 0 6 -2 13 -6 15 -25 8 -458 1 -453 -8 3 -6 -1
-7 -9 -4 -9 3 -16 10 -16 16 0 5 4 7 9 3 5 -3 12 -1 16 5 8 12 -61 41 -89 36
-11 -2 -15 -1 -8 1 8 3 12 13 9 24 -5 17 3 19 112 22 64 1 24 3 -89 3 -137 0
-177 -2 -120 -6 47 -3 69 -8 50 -9 -31 -3 -32 -4 -10 -10 20 -5 25 -13 26 -38
1 -21 -4 -34 -14 -38 -9 -3 -18 -3 -19 2 -2 4 -47 7 -100 5 l-98 -3 0 55 0 56
493 0 492 0 0 -94z m400 84 c0 -5 15 -11 33 -11 l32 -2 -35 -7 -35 -7 35 -3
c25 -2 29 -4 12 -7 -29 -6 -18 -23 16 -25 17 0 11 -4 -18 -8 l-45 -7 40 -2
c25 -1 35 -4 27 -9 -7 -5 -70 -8 -140 -8 l-127 1 -1 53 -1 52 104 0 c62 0 103
-4 103 -10z m3180 -45 l0 -55 -92 1 c-51 0 -113 4 -138 8 l-45 8 41 2 c36 1
42 4 46 26 5 23 2 25 -31 26 l-36 2 35 7 c38 7 28 16 -25 23 -16 2 32 5 108 6
l137 1 0 -55z m760 0 l0 -55 -280 0 -280 0 0 55 0 55 280 0 280 0 0 -55z m699
50 c-3 -2 -104 -5 -226 -5 -180 -1 -224 -4 -240 -16 -16 -14 -15 -15 22 -10
92 12 431 17 460 7 28 -10 26 -10 -15 -6 l-45 4 50 -14 c28 -7 42 -14 32 -14
-10 -1 -16 -5 -13 -9 3 -5 50 -12 105 -15 215 -15 128 -23 -248 -26 l-391 -2
0 55 0 56 257 0 c141 0 254 -2 252 -5z m304 -2 c-13 -2 -33 -2 -45 0 -13 2 -3
4 22 4 25 0 35 -2 23 -4z m460 -13 c-3 -11 -7 -20 -9 -20 -2 0 -4 9 -4 20 0
11 4 20 9 20 5 0 7 -9 4 -20z m-525 -17 c-16 -2 -40 -2 -55 0 -16 2 -3 4 27 4
30 0 43 -2 28 -4z m-6695 -18 c4 -8 3 -16 -1 -19 -4 -3 -9 4 -9 15 -2 23 3 25
10 4z m4634 -17 c-3 -7 -5 -2 -5 12 0 14 2 19 5 13 2 -7 2 -19 0 -25z m2393
-3 c0 -30 -2 -34 -14 -23 -8 7 -10 15 -5 16 5 2 9 12 9 23 0 10 2 19 5 19 3 0
5 -16 5 -35z m-6990 -5 l0 -30 -192 0 c-105 0 -189 3 -186 6 3 3 86 6 184 7
177 2 179 2 182 25 5 32 12 27 12 -8z m7182 1 c2 -17 1 -28 -4 -25 -8 5 -12
54 -4 54 2 0 6 -13 8 -29z m-2422 9 c0 -5 -5 -10 -11 -10 -5 0 -7 5 -4 10 3 6
8 10 11 10 2 0 4 -4 4 -10z m1855 0 c40 -6 43 -7 15 -8 -19 0 -57 3 -85 8 -40
6 -43 7 -15 8 19 0 58 -3 85 -8z m-5962 -40 c-3 -12 -8 -19 -11 -16 -5 6 5 36
12 36 2 0 2 -9 -1 -20z m-1690 3 c-13 -2 -33 -2 -45 0 -13 2 -3 4 22 4 25 0
35 -2 23 -4z m8780 0 c-23 -2 -64 -2 -90 0 -26 2 -7 3 42 3 50 0 71 -1 48 -3z
m-783 -68 l0 -45 -47 0 c-51 0 -55 6 -8 11 36 5 45 15 45 52 0 15 2 27 5 27 3
0 5 -20 5 -45z m-4183 -347 c-2 -13 -4 -3 -4 22 0 25 2 35 4 23 2 -13 2 -33 0
-45z m3498 -136 c-3 -3 -11 0 -18 7 -9 10 -8 11 6 5 10 -3 15 -9 12 -12z m131
-43 c-1 -44 -3 -49 -23 -49 -27 0 -31 17 -5 23 9 3 -8 4 -38 4 -31 0 -41 -2
-22 -4 53 -7 37 -24 -20 -21 -42 2 -52 6 -54 23 -3 18 2 20 57 17 59 -4 60 -3
49 17 -6 12 -7 21 -1 21 5 0 11 -4 13 -9 2 -5 9 -3 16 5 7 8 8 14 2 14 -5 0
-10 4 -10 9 0 5 8 7 18 4 15 -4 19 -14 18 -54z m-3246 -159 l0 -110 -122 4
c-68 2 -156 5 -195 5 l-73 1 0 100 0 99 103 4 c56 1 144 4 195 5 l92 2 0 -110z
m-600 -45 c0 -25 -3 -45 -8 -45 -4 0 -6 20 -4 45 2 25 6 45 8 45 2 0 4 -20 4
-45z m-33 -51 c-3 -3 -12 -4 -19 -1 -8 3 -5 6 6 6 11 1 17 -2 13 -5z m2433
-28 c0 -3 -4 -8 -10 -11 -5 -3 -10 -1 -10 4 0 6 5 11 10 11 6 0 10 -2 10 -4z
m-97 -13 c-7 -2 -21 -2 -30 0 -10 3 -4 5 12 5 17 0 24 -2 18 -5z m-5438 -112
c-16 -3 -88 -3 -160 0 l-130 5 160 1 c88 1 147 -2 130 -6z m563 2 c7 -3 12
-24 12 -54 l0 -49 -100 0 c-89 0 -123 -9 -87 -23 6 -3 1 -6 -13 -7 -22 0 -23
-2 -7 -11 12 -7 17 -22 16 -52 -1 -40 -2 -40 -9 -12 l-8 30 -1 -27 -1 -28
-157 1 c-87 0 -153 2 -148 4 9 3 154 14 210 16 11 0 31 3 44 5 22 5 22 6 6 18
-17 12 -17 13 0 19 16 7 16 9 1 32 -9 14 -12 25 -6 25 5 0 10 9 10 20 0 11 7
20 15 20 9 0 15 9 15 24 0 54 6 57 104 55 50 -1 97 -4 104 -6z m980 -50 l3
-53 -190 0 -191 0 0 54 0 54 188 -1 187 -2 3 -52z m4409 -20 c-2 -16 -4 -3 -4
27 0 30 2 43 4 28 2 -16 2 -40 0 -55z m486 71 l48 -6 -3 -47 -3 -46 -92 -3
-93 -3 0 54 0 54 48 1 c26 1 69 -1 95 -4z m1089 -6 c3 -7 22 -12 49 -11 32 0
35 -1 12 -4 -24 -3 -33 -9 -33 -24 0 -11 7 -19 18 -20 14 0 14 -2 -3 -8 -11
-5 -23 -7 -27 -4 -5 2 -8 -1 -8 -6 0 -6 6 -11 13 -11 8 0 7 -3 -3 -9 -8 -6
-18 -7 -23 -4 -11 7 -339 4 -346 -3 -3 -2 -3 -31 -2 -64 l2 -60 -220 0 c-204
0 -221 1 -221 18 -1 9 -3 34 -6 55 l-6 37 52 0 c28 0 49 -4 46 -9 -3 -5 1 -12
10 -15 12 -4 15 -2 10 9 -3 8 -1 15 4 15 6 0 10 27 10 60 l0 59 138 4 c383 8
530 7 534 -5z m-1432 -48 c0 -46 -2 -50 -23 -50 -15 0 -24 6 -24 15 0 9 6 14
14 11 8 -3 11 -1 8 4 -3 6 -12 10 -19 10 -8 0 -11 10 -8 30 3 24 9 30 28 30
22 0 24 -4 24 -50z m1838 0 c-3 -40 -6 -45 -28 -46 -14 0 -60 -1 -103 -2 -49
-1 -76 -6 -72 -12 3 -5 2 -10 -3 -10 -5 0 -12 -9 -15 -20 -3 -11 -13 -20 -22
-20 -10 0 -15 5 -12 13 20 48 20 50 8 43 -9 -6 -12 -1 -9 15 3 22 9 24 61 27
37 2 57 -1 57 -8 0 -7 -8 -9 -20 -5 -11 4 -20 2 -20 -4 0 -12 14 -14 46 -5 16
4 20 11 16 26 -5 20 -2 21 44 16 27 -3 41 -4 32 -1 -10 2 -18 9 -18 14 0 5
-24 9 -52 8 -29 0 -47 -3 -40 -6 29 -12 8 -23 -45 -23 -41 0 -54 3 -43 10 8 5
29 10 45 11 l30 2 -30 5 c-53 8 -2 17 100 17 l96 1 -3 -46z m-7965 -2 c15 -6
27 -15 27 -20 0 -6 -7 -8 -15 -5 -8 4 -17 2 -20 -3 -3 -5 3 -11 12 -13 10 -3
-34 -5 -97 -5 -122 0 -117 15 7 19 35 1 66 6 70 12 3 5 -13 8 -40 6 -25 -2
-43 0 -40 5 3 4 0 12 -8 16 -18 12 69 1 104 -12z m6060 15 c-7 -2 -19 -2 -25
0 -7 3 -2 5 12 5 14 0 19 -2 13 -5z m-2893 -134 l0 -109 -95 0 -95 0 0 90 c0
53 4 90 10 90 6 0 10 -5 10 -12 0 -6 9 -2 20 9 13 15 27 20 42 16 13 -3 20 -3
16 2 -4 4 -22 11 -40 15 -25 6 -12 8 50 8 l82 0 0 -109z m-3500 91 c0 -5 -5
-10 -11 -10 -5 0 -7 5 -4 10 3 6 8 10 11 10 2 0 4 -4 4 -10z m390 -5 c0 -8 -7
-15 -15 -15 -13 0 -14 3 -3 15 16 18 18 18 18 0z m6003 -12 c-7 -2 -19 -2 -25
0 -7 3 -2 5 12 5 14 0 19 -2 13 -5z m2240 0 c-7 -2 -21 -2 -30 0 -10 3 -4 5
12 5 17 0 24 -2 18 -5z m-7342 -40 c1 -17 2 -17 6 0 2 9 13 17 24 17 18 0 20
-6 17 -57 l-3 -58 -85 -2 -85 -1 0 47 c0 26 5 48 10 48 6 0 9 -21 8 -46 -3
-47 1 -47 12 2 4 20 10 27 20 23 8 -3 15 -1 15 4 0 6 -6 10 -13 10 -8 0 -14 7
-14 15 0 24 87 21 88 -2z m6606 -65 c-2 -18 -4 -6 -4 27 0 33 2 48 4 33 2 -15
2 -42 0 -60z m193 -3 c0 -22 -4 -25 -36 -25 -31 0 -35 2 -24 15 7 8 21 15 31
15 11 0 19 5 19 10 0 6 2 10 5 10 3 0 5 -11 5 -25z m-6762 -463 l3 -52 -383 2
-383 3 -3 43 c-3 34 -7 42 -23 42 -11 0 -22 -7 -25 -15 -4 -8 -10 -12 -15 -9
-15 9 -10 -2 12 -27 l21 -24 -24 -6 c-13 -4 -41 -7 -64 -8 -40 -1 -40 -1 -42
38 -2 22 3 43 9 47 8 4 9 3 5 -4 -4 -7 -1 -12 9 -12 9 0 13 5 10 10 -3 6 -5
11 -3 11 14 6 424 15 633 15 l260 -1 3 -53z m-1328 -3 c0 -43 -3 -50 -16 -45
-9 3 -20 6 -26 6 -5 0 -1 16 11 35 11 19 17 36 13 39 -4 2 -36 4 -71 5 -35 0
-66 3 -69 6 -3 3 31 5 76 5 l82 0 0 -51z m182 14 c-6 -65 -10 -70 -11 -15 0
28 3 52 7 52 4 0 6 -17 4 -37z m1713 27 c3 -6 -1 -7 -9 -4 -13 5 -16 -2 -16
-34 0 -28 -5 -42 -17 -48 -10 -4 -90 -9 -179 -12 l-161 -4 -6 39 c-14 79 -29
73 187 73 118 0 197 -4 201 -10z m5170 -40 l0 -45 -245 0 -245 0 2 42 c1 32
-2 43 -15 46 -9 3 100 4 243 3 l260 -1 0 -45z m465 -72 l0 -123 -147 6 c-82 3
-149 6 -149 7 -1 1 0 17 1 35 2 17 3 69 4 115 l1 82 145 0 145 0 0 -122z m830
109 c0 -8 4 -6 10 3 6 9 10 10 10 3 0 -16 -32 -33 -67 -34 -20 -1 -22 -3 -8
-6 11 -2 29 -8 40 -14 11 -5 70 -11 132 -12 71 -1 116 -6 124 -14 9 -9 -65
-12 -336 -13 -191 0 -351 -3 -356 -6 -5 -3 -9 -34 -9 -70 l0 -64 -90 0 -90 0
0 120 0 119 320 0 c245 0 320 -2 320 -12z m114 -2 c4 -12 -3 -15 -33 -15 -52
0 -62 24 -11 27 26 2 40 -2 44 -12z m69 8 c-13 -2 -33 -2 -45 0 -13 2 -3 4 22
4 25 0 35 -2 23 -4z m222 -83 c4 -6 -18 -10 -62 -9 -48 1 -59 3 -38 8 51 11
93 12 100 1z m-8852 -7 c-7 -2 -21 -2 -30 0 -10 3 -4 5 12 5 17 0 24 -2 18 -5z
m9185 0 c-60 -2 -156 -2 -215 0 -60 1 -11 3 107 3 118 0 167 -2 108 -3z
m-2608 -324 l0 -90 185 3 185 3 0 -102 0 -103 95 0 95 0 0 -120 0 -120 95 0
96 0 -3 -92 -3 -93 -92 -3 -93 -3 0 91 0 90 -370 0 -370 0 0 34 0 34 38 -9
c20 -5 53 -9 72 -10 25 -2 17 -4 -25 -9 l-60 -7 75 0 75 0 2 53 2 54 -96 0
c-84 0 -94 -2 -83 -15 10 -12 10 -15 -1 -16 -8 -1 -3 -5 11 -9 15 -5 18 -8 9
-9 -20 -1 -29 -21 -29 -67 l0 -34 -148 0 c-82 0 -210 3 -285 7 -128 6 -136 7
-140 27 -3 16 -5 15 -6 -6 l-1 -28 -100 0 -100 0 0 75 0 75 -103 0 -103 0 4
-75 4 -75 -175 0 c-96 0 -189 3 -207 6 l-32 7 4 69 3 69 -302 -1 -303 -1 0 61
0 60 100 0 100 0 0 98 0 97 -199 -3 -198 -3 -2 81 c-1 44 -1 81 1 82 2 2 509
5 1128 8 619 3 1153 6 1188 8 l62 2 0 -91z m-2589 79 c0 -2 3 -35 6 -75 6 -86
1 -91 -97 -87 -36 2 -73 3 -82 4 -16 0 -18 11 -18 80 l0 80 95 0 c52 0 95 -1
96 -2z m203 -173 c2 -6 3 -49 2 -95 l-1 -85 -97 -3 -98 -3 0 98 0 98 95 0 c56
0 96 -4 99 -10z m-3178 -125 c10 0 14 -13 14 -45 l0 -45 -190 0 -190 0 0 -45
0 -46 -92 3 -93 3 -3 88 c-1 48 1 87 5 87 5 0 8 -19 7 -42 l-2 -43 6 40 7 40
245 5 c135 3 251 4 258 3 8 -2 20 -3 28 -3z m6792 -42 l3 -48 -174 0 -175 0
-4 45 -3 44 125 3 c69 2 148 3 175 3 l50 0 3 -47z m-7530 -5 c2 -26 -1 -43 -7
-43 -6 0 -11 6 -11 13 0 9 -2 9 -8 0 -10 -16 -162 -22 -162 -5 0 6 3 11 8 10
17 -5 82 14 82 23 0 6 4 8 9 4 5 -3 12 -1 16 5 3 5 -3 10 -14 10 -12 0 -21 7
-21 16 0 12 10 14 53 12 l52 -3 3 -42z m7722 37 c0 -7 6 -7 19 0 11 6 80 9
163 9 79 -1 133 -4 120 -6 -12 -2 -20 -9 -17 -14 9 -13 21 -11 40 7 15 15 18
15 36 -4 20 -23 25 -37 9 -27 -5 3 -10 1 -10 -4 0 -6 5 -11 12 -11 6 0 9 -3 6
-6 -4 -3 -66 -7 -140 -8 -73 -1 -141 -6 -150 -10 -13 -6 -18 -20 -18 -47 l0
-39 -45 0 -45 0 0 85 c0 50 4 85 10 85 6 0 10 -5 10 -10z m970 -59 l-85 -6 -6
-50 -6 -50 -1 58 -2 57 93 -2 92 -2 -85 -5z m180 -1 c0 -5 -2 -10 -4 -10 -3 0
-8 5 -11 10 -3 6 -1 10 4 10 6 0 11 -4 11 -10z m37 4 c-3 -3 -12 -4 -19 -1 -8
3 -5 6 6 6 11 1 17 -2 13 -5z m-1068 -56 l-2 -33 -5 30 c-6 29 -6 29 -12 -10
l-7 -40 -2 43 c-1 31 3 42 14 42 11 0 15 -10 14 -32z m-1614 -128 c13 -5 14
-9 5 -9 -8 0 -24 4 -35 9 -13 5 -14 9 -5 9 8 0 24 -4 35 -9z m-950 -60 c3 -5
1 -10 -4 -10 -6 0 -11 5 -11 10 0 6 2 10 4 10 3 0 8 -4 11 -10z m-2282 -7
c-13 -2 -33 -2 -45 0 -13 2 -3 4 22 4 25 0 35 -2 23 -4z m127 -55 c0 -45 -3
-59 -10 -48 -7 11 -10 6 -10 -21 0 -41 -11 -49 -66 -49 l-34 0 0 53 c0 36 3
48 10 37 8 -12 15 -9 43 18 26 25 36 29 45 20 9 -9 12 -6 12 14 0 24 -4 27
-42 31 l-43 4 48 1 47 2 0 -62z m-130 -79 c0 -28 -4 -39 -15 -39 -11 0 -15 12
-15 45 0 35 3 43 15 39 10 -4 15 -20 15 -45z m127 -26 c-3 -10 -5 -4 -5 12 0
17 2 24 5 18 2 -7 2 -21 0 -30z m-2919 -65 l-3 -53 -377 -2 c-351 -2 -378 -1
-379 15 0 13 -3 11 -9 -5 -5 -13 -12 -23 -16 -23 -3 0 -3 7 0 15 4 10 -2 19
-17 25 -22 9 -22 9 3 8 42 -3 108 14 114 28 7 19 -10 27 -33 14 -20 -10 -79
-14 -69 -4 6 6 32 12 58 13 13 1 13 2 0 11 -10 6 113 10 358 10 l373 0 -3 -52z
m552 -3 l0 -55 -184 0 -184 0 -4 51 c-1 28 -1 53 1 55 2 2 87 4 188 4 l183 0
0 -55z m2522 11 c-4 -6 -8 -2 -10 12 -2 13 -8 20 -14 16 -7 -5 -8 -2 -3 6 6
10 11 9 21 -5 7 -10 10 -23 6 -29z m28 34 c0 -5 -4 -10 -10 -10 -5 0 -10 5
-10 10 0 6 5 10 10 10 6 0 10 -4 10 -10z m-3921 -16 c8 -7 -113 -2 -164 6 -34
5 -16 6 55 3 58 -3 107 -7 109 -9z m3829 -16 c-6 -19 -76 -34 -90 -20 -8 8 -2
13 23 20 48 14 71 14 67 0z m-3975 -5 c-13 -2 -33 -2 -45 0 -13 2 -3 4 22 4
25 0 35 -2 23 -4z m25 -19 c12 -4 22 -11 22 -16 0 -5 -4 -6 -10 -3 -5 3 -10
-2 -11 -12 0 -10 -3 -13 -6 -5 -6 14 -83 17 -83 2 0 -15 -70 -12 -71 3 0 10
-2 10 -6 0 -3 -9 -24 -13 -61 -12 l-57 1 50 10 c27 5 52 14 56 19 4 7 13 4 23
-7 15 -15 19 -15 27 -3 8 12 10 12 18 0 7 -11 10 -9 16 8 7 22 44 28 93 15z
m4007 -17 c-11 -7 -38 -12 -60 -12 -29 0 -40 -4 -40 -15 0 -18 -21 -33 -35
-25 -6 3 -10 1 -10 -4 0 -6 -5 -11 -11 -11 -5 0 -8 4 -5 9 4 5 0 12 -6 14 -7
3 -2 6 12 6 14 1 34 11 44 22 14 17 25 20 53 16 24 -4 40 -1 50 9 9 8 18 12
22 9 3 -4 -3 -12 -14 -18z m-138 5 c8 -5 9 -13 3 -22 -8 -12 -10 -11 -11 5 0
20 -1 20 -8 1 -7 -19 -8 -19 -13 2 -6 23 6 29 29 14z m-3802 -22 c-3 -5 -16
-10 -28 -9 -21 0 -21 1 -2 9 28 12 37 12 30 0z m3935 -25 c0 -10 -10 -15 -32
-15 -34 0 -29 14 7 23 11 3 21 5 23 6 1 0 2 -6 2 -14z m-3843 -57 c-3 -8 -6
-5 -6 6 -1 11 2 17 5 13 3 -3 4 -12 1 -19z m4728 12 c3 -5 1 -10 -4 -10 -6 0
-11 5 -11 10 0 6 2 10 4 10 3 0 8 -4 11 -10z m1145 -27 c-3 -63 -1 -80 9 -65
4 7 6 24 3 38 -2 13 0 24 6 24 12 0 14 -71 2 -90 -11 -18 -26 -5 -33 30 -3 14
-5 3 -4 -24 l2 -49 -166 5 c-202 6 -203 6 -193 -80 3 -33 2 -67 -2 -75 -6 -10
-9 9 -10 53 0 39 -6 75 -13 84 -10 12 -9 18 4 34 14 15 26 18 66 14 41 -4 49
-2 49 12 0 14 13 16 89 16 50 0 92 -4 96 -9 3 -6 19 -16 35 -25 30 -14 30 -14
30 14 0 31 21 130 27 130 3 0 4 -17 3 -37z m-1017 10 c-13 -2 -33 -2 -45 0
-13 2 -3 4 22 4 25 0 35 -2 23 -4z m17 -44 c0 -12 -9 -21 -27 -25 -45 -10 -51
-14 -12 -10 39 5 72 -11 88 -43 9 -16 2 -18 -99 -20 -96 -2 -109 0 -104 13 3
9 10 16 16 16 5 0 8 6 7 13 -4 32 2 47 20 47 11 0 22 -6 25 -12 4 -7 4 1 2 17
-4 30 -4 30 40 27 35 -3 44 -8 44 -23z m720 21 c0 -5 19 -10 42 -10 23 0 39
-3 35 -6 -9 -9 -157 7 -157 17 0 5 18 9 40 9 22 0 40 -4 40 -10z m3513 -7 c40
0 72 -4 79 -11 9 -9 -5 -12 -63 -12 -72 0 -99 10 -99 35 0 6 3 5 8 -2 4 -7 33
-11 75 -10z m-4373 -13 c0 -5 -4 -10 -10 -10 -5 0 -10 5 -10 10 0 6 5 10 10
10 6 0 10 -4 10 -10z m-1043 -72 c-2 -13 -4 -3 -4 22 0 25 2 35 4 23 2 -13 2
-33 0 -45z m1983 52 c0 -5 -18 -10 -40 -10 -22 0 -40 5 -40 10 0 6 18 10 40
10 22 0 40 -4 40 -10z m-1980 -95 c0 -8 -4 -15 -10 -15 -5 0 -7 7 -4 15 4 8 8
15 10 15 2 0 4 -7 4 -15z m1250 -9 c0 -3 -4 -8 -10 -11 -5 -3 -10 -1 -10 4 0
6 5 11 10 11 6 0 10 -2 10 -4z m525 -48 c4 -29 5 -69 2 -88 -2 -24 -5 -14 -7
30 -3 65 -3 65 -10 20 -6 -41 -7 -39 -7 23 1 80 13 88 22 15z m-2925 17 c0 -8
-4 -15 -10 -15 -5 0 -10 7 -10 15 0 8 5 15 10 15 6 0 10 -7 10 -15z m1308 8
c-10 -2 -28 -2 -40 0 -13 2 -5 4 17 4 22 1 32 -1 23 -4z m252 -308 l0 -315
105 0 105 0 0 100 0 100 100 0 100 0 0 120 0 120 100 0 c74 0 101 -4 107 -14
4 -8 17 -16 28 -19 18 -4 18 -5 -2 -6 -22 -1 -23 -5 -23 -90 0 -75 3 -90 16
-93 10 -2 97 -2 195 0 l179 3 0 103 0 104 100 0 100 0 1 -76 c3 -129 3 -132
17 -132 7 0 11 4 8 9 -4 5 19 11 49 13 58 3 63 -8 5 -15 -19 -2 -3 -2 35 0 39
3 71 6 73 8 7 7 10 43 11 118 l1 77 100 0 100 0 2 -117 c1 -65 1 -162 -1 -215
l-3 -98 111 0 111 0 0 215 0 214 92 3 92 3 -3 98 -3 97 191 0 c105 0 191 -3
192 -7 1 -5 2 -42 4 -83 1 -41 3 -83 4 -92 1 -15 15 -18 94 -20 l92 -3 3 -302
2 -303 -95 0 -96 0 3 -92 3 -93 283 3 282 3 0 -94 0 -95 -36 -7 c-20 -3 -148
-3 -285 1 l-249 7 0 93 0 94 -100 0 -100 0 0 -100 0 -100 -90 0 -90 0 -1 -62
c-1 -35 0 -77 1 -94 1 -18 -3 -35 -8 -38 -6 -3 -51 -3 -101 1 l-91 6 0 89 0
90 -200 -7 -199 -7 -3 97 -3 97 -200 -1 c-171 -2 -202 -4 -212 -18 -7 -9 -10
-20 -7 -24 2 -4 7 -33 10 -63 4 -43 3 -56 -8 -56 -10 0 -9 -3 2 -10 11 -7 -6
-10 -55 -11 -38 0 -131 -3 -205 -5 l-135 -4 -3 -95 -3 -95 -99 0 -100 0 0
-186 0 -185 405 4 404 5 3 -112 3 -111 98 -3 97 -3 0 111 0 110 110 0 110 0 0
-93 c0 -52 -3 -196 -7 -320 l-6 -227 -604 0 -603 0 0 100 0 100 -300 0 -300 0
0 99 c0 55 -2 105 -5 113 -4 10 -27 12 -95 10 -50 -2 -90 0 -91 5 -2 15 -8
396 -9 501 l0 102 -100 0 -100 0 0 220 c0 213 -1 220 -20 220 -16 0 -20 7 -20
30 0 23 -4 30 -20 30 -17 0 -20 -7 -20 -45 l0 -45 -40 0 c-22 0 -40 -4 -40
-10 0 -5 7 -10 17 -10 15 0 15 -1 0 -18 -10 -10 -18 -29 -19 -43 -3 -49 -16
170 -17 293 l-1 127 73 -3 c113 -4 107 -10 107 110 l0 104 78 0 c131 0 126 -5
119 117 l-7 103 68 1 c37 1 83 1 102 0 19 0 29 2 23 5 -7 3 -13 12 -13 20 0 9
5 12 10 9 6 -4 10 6 10 24 0 16 -4 32 -9 35 -6 4 -5 21 1 43 8 31 7 39 -8 50
-15 11 0 13 99 13 l117 0 0 -315z m-1406 287 c4 -10 6 -49 5 -86 -1 -37 2 -71
7 -76 5 -5 52 -10 104 -12 l95 -3 3 -202 2 -203 -100 0 -100 0 0 95 0 95 -100
0 -100 0 0 -195 0 -195 100 0 100 0 0 -110 0 -110 105 0 105 0 0 194 0 195
103 3 c56 2 105 2 110 0 4 -2 7 -131 7 -288 l0 -284 -215 0 -215 0 0 90 0 90
-42 1 c-24 1 -59 3 -78 4 -19 2 -87 4 -151 4 -97 1 -118 3 -123 17 -3 8 -6
191 -6 405 l0 389 63 2 c34 1 80 3 102 3 l40 1 6 85 5 84 4 -70 3 -70 6 55 c6
53 19 69 31 36 4 -13 10 -12 32 9 23 22 27 22 31 7 2 -9 4 -3 3 14 0 17 -5 30
-11 28 -5 -2 -26 1 -45 5 -30 8 -25 9 37 10 61 1 72 -2 77 -17z m2233 -59 c-2
-16 -4 -3 -4 27 0 30 2 43 4 28 2 -16 2 -40 0 -55z m-1060 -40 c-3 -10 -5 -4
-5 12 0 17 2 24 5 18 2 -7 2 -21 0 -30z m1066 -53 c3 -11 1 -18 -4 -14 -5 3
-9 12 -9 20 0 20 7 17 13 -6z m-2836 -92 l-3 -53 -289 -3 c-216 -2 -291 -5
-297 -15 -4 -6 -8 -40 -8 -74 l0 -63 -80 0 -80 0 0 75 0 75 -377 -2 -378 -3
-3 -67 c-3 -65 -4 -67 -33 -73 -36 -8 -99 2 -99 15 0 6 5 10 12 10 9 0 9 3 0
12 -7 7 -12 29 -12 49 0 20 -6 42 -13 48 -9 7 -112 12 -313 13 -193 2 -298 7
-297 13 1 6 10 11 20 12 15 2 15 1 -2 -6 -17 -8 -15 -10 13 -10 21 -1 31 3 27
10 -5 7 5 9 27 6 18 -2 26 -2 16 0 -9 2 -19 11 -22 20 -5 13 1 14 41 9 39 -5
45 -4 29 5 -11 7 -40 12 -65 11 -44 0 -45 0 -21 13 23 13 20 14 -45 17 -38 2
453 5 1093 6 l1163 2 -4 -52z m2746 45 c-13 -2 -35 -2 -50 0 -16 2 -5 4 22 4
28 0 40 -2 28 -4z m2088 -23 c6 0 8 4 5 9 -8 12 18 21 60 21 l34 0 0 -131 c0
-115 -2 -130 -16 -125 -9 3 -28 7 -42 7 -27 1 -27 1 3 9 29 7 29 8 4 9 -25 1
-26 4 -23 44 12 146 12 144 -10 145 -19 0 -21 -5 -17 -44 2 -28 -1 -44 -8 -44
-7 0 -11 24 -10 68 1 37 3 59 6 50 2 -10 9 -18 14 -18z m787 -25 l3 -55 -141
0 -140 0 0 -50 0 -50 -120 0 -120 0 0 105 0 105 258 0 257 0 3 -55z m592 0 l0
-55 -199 0 -199 0 -4 51 c-1 28 -1 53 1 55 2 2 94 4 203 4 l198 0 0 -55z
m1150 0 l0 -55 -111 0 c-95 0 -114 -3 -125 -17 -13 -17 -14 -17 -8 0 3 9 1 17
-5 17 -6 0 -11 -5 -11 -10 0 -7 -6 -7 -20 0 -15 8 -20 8 -21 -2 0 -10 -2 -10
-6 0 -3 9 -63 12 -251 12 -136 0 -253 -4 -261 -9 -9 -6 -12 -26 -10 -72 l4
-64 -49 -3 c-27 -2 -52 0 -57 5 -4 4 -11 63 -14 131 l-8 122 477 0 476 0 0
-55z m-4540 15 c0 -5 -4 -10 -10 -10 -5 0 -10 5 -10 10 0 6 5 10 10 10 6 0 10
-4 10 -10z m557 -82 c-3 -8 -6 -5 -6 6 -1 11 2 17 5 13 3 -3 4 -12 1 -19z
m-18 -17 c9 -6 2 -10 -23 -13 -41 -5 -60 8 -24 15 13 2 25 5 28 5 3 1 11 -2
19 -7z m3750 -91 c0 -10 -3 -8 -9 5 -12 27 -12 43 0 25 5 -8 9 -22 9 -30z
m-2292 -12 c-3 -7 -5 -2 -5 12 0 14 2 19 5 13 2 -7 2 -19 0 -25z m2260 15 c-9
-2 -15 -9 -12 -14 4 -5 1 -9 -4 -9 -12 0 -14 13 -4 23 3 4 13 6 22 6 13 -1 12
-2 -2 -6z m-8787 -423 l0 -50 -442 1 c-244 1 -422 5 -396 8 55 8 68 16 39 26
-14 4 -21 15 -21 30 0 23 -4 24 -67 28 -38 2 147 4 410 5 l477 2 0 -50z m345
0 l0 -45 -85 0 -85 0 -3 33 c-6 60 -1 63 90 60 l83 -3 0 -45z m1350 44 c16 -7
22 -79 6 -88 -6 -4 -726 -9 -1063 -7 l-88 1 0 50 0 50 565 0 c311 0 572 -3
580 -6z m6003 -46 c3 -43 1 -48 -21 -54 -31 -7 -960 3 -1076 12 l-83 7 5 39
c3 21 1 38 -4 38 -5 0 -10 -15 -10 -32 -1 -25 -3 -27 -6 -10 -10 54 -41 52
599 49 l593 -2 3 -47z m612 2 l0 -50 -100 -1 c-55 -1 -107 -1 -115 -1 -8 0
-55 0 -105 1 l-90 1 0 50 0 50 205 0 205 0 0 -50z m470 -100 c0 -5 -4 -10 -10
-10 -5 0 -10 5 -10 10 0 6 5 10 10 10 6 0 10 -4 10 -10z m-20 -30 c0 -5 -2
-10 -4 -10 -3 0 -8 5 -11 10 -3 6 -1 10 4 10 6 0 11 -4 11 -10z m-2652 -283
l-3 -92 -95 0 -95 0 -3 83 c-2 46 -2 89 1 95 3 8 33 11 101 9 l97 -3 -3 -92z
m572 -187 l0 -100 95 0 95 0 0 -104 0 -103 -31 -7 c-17 -3 -60 -6 -95 -6 l-64
0 0 -209 0 -209 -36 -7 c-20 -3 -62 -5 -93 -4 l-56 3 -3 -105 -3 -104 -94 3
-95 3 0 -106 0 -105 -192 2 -193 3 -3 103 -3 103 -89 -3 -90 -3 0 220 0 221
93 1 c50 1 134 2 186 3 52 0 91 3 88 6 -4 4 -45 6 -92 5 l-85 -2 0 95 0 96 84
0 85 0 4 -42 c2 -24 4 23 5 105 l2 147 100 0 100 0 0 100 0 100 190 0 190 0 0
-100z m-772 -2 l-3 -93 -87 -3 -88 -3 0 90 0 90 48 4 c26 2 66 4 90 5 l43 2
-3 -92z m-4580 -105 l3 -133 -99 0 -99 0 -7 77 c-3 42 -6 102 -6 135 l0 59
103 -3 102 -3 3 -132z m932 120 c0 -6 -4 -15 -10 -18 -5 -3 -9 -18 -9 -33 1
-17 3 -21 6 -9 5 21 10 21 28 3 12 -12 12 -15 -3 -21 -9 -5 -187 -10 -394 -13
l-378 -4 0 50 c0 28 4 52 10 54 5 2 176 3 380 3 280 0 370 -3 370 -12z m36 -6
c11 4 14 -4 12 -33 -1 -37 -1 -37 -5 -7 -3 23 -8 30 -19 26 -10 -4 -14 2 -13
18 1 16 3 19 6 7 2 -10 10 -15 19 -11z m-2993 -29 c-8 -59 -13 -61 -13 -5 0
26 4 47 9 47 5 0 7 -19 4 -42z m37 30 c0 10 61 12 293 11 192 -1 275 -5 242
-10 -27 -5 -66 -6 -85 -4 -27 4 -30 3 -15 -4 17 -8 15 -10 -15 -11 -34 -2 -34
-2 -8 -10 85 -26 51 -39 -119 -47 -126 -5 -342 5 -300 14 10 3 17 14 17 29 0
13 -5 23 -11 22 -6 -2 -14 4 -16 12 -4 13 -3 13 6 0 8 -11 11 -11 11 -2z
m1600 -38 l0 -50 -189 0 -190 0 -3 43 c-4 40 -4 41 -15 17 -6 -15 -7 -29 -1
-36 6 -9 -11 -14 -62 -19 -81 -8 -97 0 -102 48 -2 21 -9 33 -21 35 -16 3 -18
-2 -15 -35 l3 -38 -60 -6 c-90 -10 -263 -10 -269 -1 -3 5 -8 28 -12 50 l-7 42
472 0 471 0 0 -50z m6966 34 c-3 -9 -6 -31 -6 -50 l0 -34 -309 0 c-170 0 -316
3 -325 6 -11 4 -16 19 -16 50 l0 44 331 0 c298 0 331 -2 325 -16z m844 -34 l0
-50 -376 0 c-239 0 -382 4 -395 10 -12 7 -19 21 -19 41 0 21 -6 32 -22 39 -14
5 135 9 395 9 l417 1 0 -50z m400 40 c-30 -4 -51 -7 -46 -8 5 -1 3 -8 -3 -16
-9 -10 -8 -15 4 -20 8 -3 15 -15 15 -26 0 -19 -6 -20 -95 -20 -88 0 -95 1 -95
20 0 22 15 27 23 8 3 -8 6 -5 6 5 1 15 9 18 51 16 56 -3 67 2 45 21 -10 8 -15
9 -15 1 0 -6 -17 -11 -40 -11 -38 0 -59 19 -22 21 12 0 13 2 3 6 -8 3 -20 -2
-28 -13 -7 -10 -13 -16 -14 -13 0 2 -2 12 -4 22 -3 16 8 17 133 15 101 -1 123
-3 82 -8z m-9178 -596 l45 -6 -1 -42 -1 -41 -459 -3 c-253 -1 -457 1 -453 4 3
4 59 6 124 5 64 -1 115 1 111 4 -3 4 -27 7 -52 7 -58 0 -68 14 -16 22 54 8 51
24 -3 19 -24 -3 -59 0 -78 5 -30 9 -23 11 56 13 l90 3 -90 6 c-49 3 84 7 296
8 212 1 406 -1 431 -4z m1376 -111 l3 -113 -111 0 -110 0 0 65 0 65 -170 0
c-129 0 -170 -3 -171 -12 0 -7 -1 -35 -2 -63 l-2 -50 -42 -9 c-23 -5 -66 -5
-97 -2 l-55 7 -3 62 -3 62 -111 3 -112 3 -4 34 c-8 70 -39 66 500 63 l487 -3
3 -112z m6954 67 l3 -50 -210 -2 -210 -3 -5 -65 -5 -65 -77 -3 -78 -3 0 71 0
70 -226 0 -226 0 4 30 c3 17 1 30 -3 30 -4 0 -10 -15 -12 -32 -3 -26 -4 -22
-5 14 l-2 47 73 4 c39 1 275 4 524 5 l451 2 4 -50z m598 41 c20 -6 25 -14 28
-49 l3 -42 -215 0 c-207 0 -216 1 -216 19 0 11 5 23 10 26 8 5 7 11 -1 21 -9
12 -6 14 22 15 l34 2 -35 7 c-20 4 48 8 155 8 105 0 201 -3 215 -7z m-7357 -8
c-7 -2 -19 -2 -25 0 -7 3 -2 5 12 5 14 0 19 -2 13 -5z m5512 -133 c3 -5 3 -55
-1 -110 l-7 -100 -88 0 -89 0 0 110 0 110 89 0 c50 0 93 -4 96 -10z m-195
-315 l0 -105 -90 0 c-79 0 -90 -2 -91 -17 0 -10 0 -55 1 -100 l1 -83 -95 0
-95 0 -3 -32 -3 -33 -282 -2 -283 -2 -6 25 c-4 14 -2 30 3 35 5 5 135 10 288
11 l280 3 3 98 3 97 94 0 95 0 0 105 0 105 90 0 90 0 0 -105z m-3150 -10 l0
-105 100 0 100 0 0 -106 0 -105 100 3 100 3 0 -112 0 -113 -100 0 -100 0 0
-215 0 -215 -100 0 -100 0 0 105 0 105 -100 0 -100 0 0 223 0 222 -95 -3 -95
-3 0 210 0 211 195 0 195 0 0 -105z m-2770 -150 l0 -55 -282 1 c-156 0 -294 0
-308 0 -25 -1 -25 -2 -22 -76 l4 -76 -69 3 -68 3 -5 68 c-3 37 -1 67 4 67 5 0
7 2 5 5 -3 2 -225 7 -495 10 -269 2 -507 9 -529 15 l-40 9 45 -3 c25 -2 70 0
100 4 l55 7 -65 3 c-46 2 -54 4 -27 7 20 2 37 8 37 14 0 5 21 10 48 11 34 1
25 3 -33 8 -78 6 -79 6 -25 10 39 3 19 6 -65 10 -66 3 297 7 808 8 l927 2 0
-55z m398 3 l-3 -53 -102 -3 -101 -3 -4 56 -3 55 108 0 108 0 -3 -52z m768 5
c-1 -47 -2 -48 -36 -54 -19 -3 -151 -6 -292 -8 l-258 -2 0 40 c0 22 -3 46 -6
55 -6 14 24 16 293 16 l299 0 0 -47z m6224 -2 l0 -49 -87 -5 c-49 -2 -236 -4
-418 -3 l-330 1 -3 53 -3 52 420 0 421 0 0 -49z m-3202 -173 l-3 -213 -197 -3
-198 -2 0 109 0 110 98 3 97 3 -3 103 -4 102 106 0 106 0 -2 -212z m-5925 195
c-7 -2 -19 -2 -25 0 -7 3 -2 5 12 5 14 0 19 -2 13 -5z m-95 -70 c-10 -2 -26
-2 -35 0 -10 3 -2 5 17 5 19 0 27 -2 18 -5z m2380 -47 c2 -10 1 -38 -3 -62 -6
-42 -7 -43 -50 -50 -25 -3 -56 -3 -70 0 -23 6 -25 11 -25 65 0 32 3 61 7 65 4
4 37 6 72 4 55 -3 66 -6 69 -22z m3014 -84 c8 -9 18 -171 11 -189 -4 -9 -32
-13 -99 -13 l-94 0 0 108 0 108 88 -4 c48 -2 90 -6 94 -10z m-5205 -459 c-2
-16 -4 -3 -4 27 0 30 2 43 4 28 2 -16 2 -40 0 -55z m693 22 c0 -48 -2 -55 -20
-55 -11 0 -20 6 -20 13 0 9 -2 9 -9 -1 -6 -10 -65 -13 -282 -10 -151 1 -260 4
-244 6 23 3 26 6 12 11 -10 4 17 7 58 7 43 0 81 6 87 12 9 9 8 12 -5 12 -9 0
-17 5 -17 10 0 8 100 16 133 11 4 0 7 4 7 9 0 6 -28 10 -64 10 -36 0 -68 5
-71 10 -4 7 70 10 214 10 l221 0 0 -55z m1477 3 c-2 -58 -10 -66 -64 -67 -32
-1 -32 -1 -35 -58 l-3 -58 -128 -3 -129 -3 4 61 3 60 -180 2 c-99 1 -226 2
-283 3 l-102 0 0 58 0 57 460 0 460 0 -3 -52z m6473 -2 c0 -40 -4 -55 -16 -60
-9 -3 -105 -6 -215 -6 l-199 0 0 -55 0 -55 -145 0 -145 0 0 60 0 59 -87 3 -88
3 -11 35 c-24 73 -52 24 -53 -91 -1 -55 -7 -59 -95 -59 l-63 0 -6 101 c-4 56
-4 106 -1 110 3 5 257 9 565 9 l559 0 0 -54z m1118 2 l-3 -53 -50 -1 c-41 -1
-43 0 -10 3 22 2 44 8 48 12 5 5 -4 6 -19 3 -17 -3 -25 -1 -20 6 3 6 0 13 -6
15 -8 3 -6 6 5 6 9 1 17 6 17 11 0 6 -8 11 -17 11 -17 1 -17 2 0 6 9 2 17 9
17 15 0 13 -121 3 -151 -13 -22 -11 -22 -12 -4 -25 23 -17 15 -25 -36 -40 -27
-8 -39 -9 -39 -1 0 6 -7 2 -15 -9 -12 -15 -16 -16 -24 -5 -5 7 -13 11 -17 8
-5 -3 -146 -7 -314 -9 l-305 -3 -3 58 -3 57 476 0 476 0 -3 -52z m-8837 20 l2
-23 4 23 c4 21 9 23 69 21 l65 -2 -3 -46 -3 -46 -87 -2 c-72 -1 -88 1 -88 13
0 9 5 12 10 9 13 -8 8 18 -5 27 -6 4 -2 8 8 8 9 0 17 5 17 10 0 6 -6 10 -14
10 -8 0 -18 5 -21 10 -4 6 5 10 19 10 20 0 26 -5 27 -22z m-701 -26 c0 -13
-12 -22 -22 -16 -10 6 -1 24 13 24 5 0 9 -4 9 -8z m6200 -96 l0 -106 98 0 97
0 -3 -110 -3 -110 100 0 101 0 0 -110 0 -110 95 0 95 0 0 -216 0 -215 95 3 95
3 0 -317 0 -318 -95 0 -95 0 0 -99 c0 -115 5 -111 -121 -111 -55 0 -77 -4 -76
-12 0 -7 -1 -50 -1 -95 l-2 -83 -95 0 -95 0 -2 -32 c0 -18 0 -44 1 -58 1 -14
0 -44 -4 -67 l-6 -43 -90 0 -89 0 0 100 0 100 -95 0 -95 0 0 95 0 95 195 0
195 0 0 105 0 105 95 0 95 0 0 110 0 110 95 0 95 0 -1 123 c-1 67 -3 114 -6
105 -4 -15 -17 -18 -89 -18 -59 0 -85 4 -86 13 -1 6 -4 -42 -8 -108 l-5 -120
-293 -3 -293 -2 2 102 2 103 -97 1 c-54 1 -100 4 -103 7 -3 3 -5 52 -5 109 0
70 -3 92 -8 68 -5 -25 -8 -29 -9 -11 -1 16 -5 21 -16 17 -8 -3 -35 -2 -60 3
-29 5 -45 5 -45 -2 0 -5 -7 -4 -15 3 -12 10 -15 10 -15 -1 0 -8 -3 -9 -9 -4
-5 6 -11 63 -15 128 l-6 117 62 2 c35 1 79 2 98 2 l35 1 3 98 3 97 -63 1
c-143 2 -128 -4 -128 55 0 28 -3 79 -6 113 l-7 61 207 0 206 0 0 105 0 105
-200 0 -200 0 0 103 c0 57 2 106 5 109 3 3 136 6 295 7 l290 2 0 -105z m768
-113 l2 -213 90 0 90 0 0 -110 0 -110 -90 0 -90 0 0 110 0 109 -92 3 -93 3 -3
213 -3 213 93 -3 93 -3 3 -212z m2462 177 c0 -5 -5 -10 -11 -10 -5 0 -7 5 -4
10 3 6 8 10 11 10 2 0 4 -4 4 -10z m-37 -7 c-7 -2 -19 -2 -25 0 -7 3 -2 5 12
5 14 0 19 -2 13 -5z m-43 -7 c0 -3 -4 -8 -10 -11 -5 -3 -10 -1 -10 4 0 6 5 11
10 11 6 0 10 -2 10 -4z m-4147 -318 c4 -90 4 -236 0 -326 l-6 -162 -200 2
-200 3 1 103 1 102 -100 0 -99 0 0 110 0 109 98 3 97 3 -3 97 c-2 53 -1 102 3
107 4 7 75 11 204 11 l198 0 6 -162z m-3560 -185 c-7 -2 -21 -2 -30 0 -10 3
-4 5 12 5 17 0 24 -2 18 -5z m6185 -43 c5 -79 0 -87 -60 -89 -42 -1 -50 1 -40
11 6 6 12 31 12 55 0 24 5 43 10 43 6 0 10 4 10 9 0 6 -19 12 -42 14 -27 2
-15 4 32 5 l75 2 3 -50z m342 40 c-13 -9 -13 -10 0 -10 13 0 15 -21 15 -133
l0 -132 -85 0 -85 0 -3 137 c-3 156 -12 143 103 146 50 2 66 -1 55 -8z m-830
-201 l0 -99 -95 0 -95 0 0 100 0 99 88 3 c48 2 90 2 95 0 4 -2 7 -48 7 -103z
m285 -529 l95 0 0 -100 0 -100 -95 0 -95 0 0 -110 0 -110 95 0 95 0 0 -105 0
-105 95 0 95 0 0 -194 0 -194 -67 -6 c-124 -10 -117 -16 -123 99 l-5 100 -90
0 -90 0 -3 97 -3 98 -179 0 -180 0 0 210 0 210 178 2 177 3 0 105 0 105 -87 3
-88 3 0 53 c0 29 -3 121 -7 204 l-6 151 94 3 94 3 3 -212 2 -213 95 0z m-2008
93 c-3 -10 -5 -2 -5 17 0 19 2 27 5 18 2 -10 2 -26 0 -35z m170 25 c-3 -8 -6
-5 -6 6 -1 11 2 17 5 13 3 -3 4 -12 1 -19z m2560 16 c-3 -3 -12 -4 -19 -1 -8
3 -5 6 6 6 11 1 17 -2 13 -5z m61 -55 c3 -22 -2 -27 -29 -33 -17 -3 -61 -6
-98 -5 l-66 1 48 11 c39 10 46 14 36 25 -9 8 -9 12 -2 12 6 0 13 -6 16 -12 3
-9 13 -7 33 9 37 28 58 25 62 -8z m-206 -41 c-7 -7 -12 -8 -12 -2 0 14 12 26
19 19 2 -3 -1 -11 -7 -17z m-2479 -235 c-7 -2 -21 -2 -30 0 -10 3 -4 5 12 5
17 0 24 -2 18 -5z m70 0 c-7 -2 -19 -2 -25 0 -7 3 -2 5 12 5 14 0 19 -2 13 -5z
m2219 -25 c2 -7 2 -55 0 -107 l-4 -94 -76 7 c-41 3 -104 6 -139 6 l-63 0 0
100 0 100 139 0 c102 0 140 -3 143 -12z m-7899 -125 c-7 -2 -19 -2 -25 0 -7 3
-2 5 12 5 14 0 19 -2 13 -5z m74 1 c-3 -3 -12 -4 -19 -1 -8 3 -5 6 6 6 11 1
17 -2 13 -5z m276 -1 c-13 -2 -33 -2 -45 0 -13 2 -3 4 22 4 25 0 35 -2 23 -4z
m575 0 c-86 -2 -230 -2 -320 0 -90 1 -19 3 157 3 176 0 249 -2 163 -3z m7805
0 c-68 -2 -178 -2 -245 0 -68 1 -13 3 122 3 135 0 190 -2 123 -3z m-626 -125
c-2 -18 -4 -6 -4 27 0 33 2 48 4 33 2 -15 2 -42 0 -60z m-7552 32 c4 -6 -17
-9 -57 -8 l-63 1 55 7 c30 4 56 7 57 8 1 1 5 -2 8 -8z m358 -7 c-57 -2 -149
-2 -205 0 -57 1 -11 3 102 3 113 0 159 -2 103 -3z m7587 3 c0 -2 -11 -6 -25
-8 -14 -3 -25 -1 -25 3 0 5 11 9 25 9 14 0 25 -2 25 -4z m37 -2 c-3 -3 -12 -4
-19 -1 -8 3 -5 6 6 6 11 1 17 -2 13 -5z m216 -1 c-13 -2 -33 -2 -45 0 -13 2
-3 4 22 4 25 0 35 -2 23 -4z"/>
<path d="M4155 9730 c-3 -6 1 -7 9 -4 18 7 21 14 7 14 -6 0 -13 -4 -16 -10z"/>
<path d="M4120 9700 c-41 -6 -42 -7 -10 -8 19 0 58 3 85 8 47 7 48 7 10 7 -22
0 -60 -3 -85 -7z"/>
<path d="M6093 9723 c9 -2 23 -2 30 0 6 3 -1 5 -18 5 -16 0 -22 -2 -12 -5z"/>
<path d="M2600 9660 l-45 -7 42 -1 c23 -1 45 3 48 8 3 6 5 9 3 8 -2 0 -23 -4
-48 -8z"/>
<path d="M4635 9191 c-6 -5 -21 -11 -35 -14 -22 -4 -21 -4 6 -6 20 0 34 5 38
14 6 17 4 19 -9 6z"/>
<path d="M6031 9024 c0 -11 3 -14 6 -6 3 7 2 16 -1 19 -3 4 -6 -2 -5 -13z"/>
<path d="M5888 8953 c6 -2 18 -2 25 0 6 3 1 5 -13 5 -14 0 -19 -2 -12 -5z"/>
<path d="M5484 8934 c3 -9 6 -18 6 -20 0 -2 44 -3 98 -2 l97 2 -92 3 c-51 2
-93 8 -93 12 0 5 41 6 90 3 64 -3 90 -1 90 7 0 7 -32 11 -101 11 -88 0 -100
-2 -95 -16z"/>
<path d="M5568 8893 c6 -2 18 -2 25 0 6 3 1 5 -13 5 -14 0 -19 -2 -12 -5z"/>
<path d="M5657 8863 c10 -65 22 -73 23 -15 0 39 -4 52 -14 52 -11 0 -13 -9 -9
-37z"/>
<path d="M5481 8823 c0 -35 2 -63 7 -63 4 0 6 21 4 48 -5 75 -10 82 -11 15z"/>
<path d="M5480 8448 l0 -103 100 3 100 3 0 100 0 99 -100 0 -100 0 0 -102z"/>
<path d="M5880 8448 l0 -98 100 0 100 0 0 98 0 97 -100 0 -100 0 0 -97z m148
-85 c-21 -2 -57 -2 -80 0 -24 2 -7 4 37 4 44 0 63 -2 43 -4z"/>
<path d="M6280 8450 l0 -100 73 2 72 1 -60 7 c-59 7 -59 7 28 8 50 1 87 6 88
12 0 6 0 45 1 88 l0 77 -101 3 -101 2 0 -100z"/>
<path d="M6443 8353 c9 -2 25 -2 35 0 9 3 1 5 -18 5 -19 0 -27 -2 -17 -5z"/>
<path d="M5477 8133 c-1 -1 -1 -47 1 -102 l3 -101 100 0 99 0 0 103 0 102
-101 0 c-55 0 -101 -1 -102 -2z"/>
<path d="M5880 8033 l0 -98 100 3 100 3 0 95 0 94 -100 0 -100 0 0 -97z m163
-80 c-7 -2 -19 -2 -25 0 -7 3 -2 5 12 5 14 0 19 -2 13 -5z"/>
<path d="M6282 8033 l3 -98 40 3 c22 2 42 8 43 13 2 5 25 8 50 8 46 -2 46 -2
12 -9 -34 -7 -34 -7 13 -9 l47 -1 0 95 0 95 -105 0 -106 0 3 -97z"/>
<path d="M6838 7983 c7 -3 16 -2 19 1 4 3 -2 6 -13 5 -11 0 -14 -3 -6 -6z"/>
<path d="M6728 7963 c7 -3 16 -2 19 1 4 3 -2 6 -13 5 -11 0 -14 -3 -6 -6z"/>
<path d="M5478 7600 l3 -100 100 0 99 0 0 100 0 100 -102 0 -103 0 3 -100z"/>
<path d="M5880 7600 l0 -100 100 0 100 0 0 100 0 100 -100 0 -100 0 0 -100z"/>
<path d="M6280 7600 l0 -100 99 0 100 0 3 100 3 100 -102 0 -103 0 0 -100z"/>
<path d="M6680 7661 c0 -21 3 -66 6 -100 l7 -61 91 0 92 0 0 100 0 100 -98 0
-98 0 0 -39z m125 -141 c-3 -5 -14 -10 -23 -9 -14 0 -13 2 3 9 27 11 27 11 20
0z"/>
<path d="M3143 9083 c15 -2 39 -2 55 0 15 2 2 4 -28 4 -30 0 -43 -2 -27 -4z"/>
<path d="M2413 9063 c9 -2 25 -2 35 0 9 3 1 5 -18 5 -19 0 -27 -2 -17 -5z"/>
<path d="M2674 9021 c3 -5 16 -11 28 -14 22 -6 22 -5 4 8 -22 17 -40 20 -32 6z"/>
<path d="M2500 8999 c0 -5 5 -7 10 -4 6 3 10 8 10 11 0 2 -4 4 -10 4 -5 0 -10
-5 -10 -11z"/>
<path d="M6681 9024 c0 -11 3 -14 6 -6 3 7 2 16 -1 19 -3 4 -6 -2 -5 -13z"/>
<path d="M7078 9073 c7 -3 16 -2 19 1 4 3 -2 6 -13 5 -11 0 -14 -3 -6 -6z"/>
<path d="M7098 9053 c7 -3 16 -2 19 1 4 3 -2 6 -13 5 -11 0 -14 -3 -6 -6z"/>
<path d="M7898 9043 c7 -3 16 -2 19 1 4 3 -2 6 -13 5 -11 0 -14 -3 -6 -6z"/>
<path d="M8027 9013 c18 -2 50 -2 70 0 21 2 7 4 -32 4 -38 0 -55 -2 -38 -4z"/>
<path d="M8378 9003 c7 -3 16 -2 19 1 4 3 -2 6 -13 5 -11 0 -14 -3 -6 -6z"/>
<path d="M8276 8405 c-3 -8 -1 -15 4 -15 13 0 22 18 11 24 -5 3 -11 -1 -15 -9z"/>
<path d="M1688 7903 c7 -3 16 -2 19 1 4 3 -2 6 -13 5 -11 0 -14 -3 -6 -6z"/>
<path d="M8215 7850 c-3 -5 -2 -10 4 -10 5 0 13 5 16 10 3 6 2 10 -4 10 -5 0
-13 -4 -16 -10z"/>
<path d="M8071 7824 c0 -11 3 -14 6 -6 3 7 2 16 -1 19 -3 4 -6 -2 -5 -13z"/>
<path d="M9215 7970 c-3 -5 -1 -10 4 -10 6 0 11 5 11 10 0 6 -2 10 -4 10 -3 0
-8 -4 -11 -10z"/>
<path d="M9226 7918 c3 -4 9 -8 15 -8 5 0 9 4 9 8 0 5 -7 9 -15 9 -8 0 -12 -4
-9 -9z"/>
<path d="M9045 7910 c-3 -5 -1 -10 4 -10 6 0 11 5 11 10 0 6 -2 10 -4 10 -3 0
-8 -4 -11 -10z"/>
<path d="M9178 7913 c6 -2 18 -2 25 0 6 3 1 5 -13 5 -14 0 -19 -2 -12 -5z"/>
<path d="M4420 7913 c0 -5 5 -15 10 -23 8 -12 10 -11 10 8 0 12 -4 22 -10 22
-5 0 -10 -3 -10 -7z"/>
<path d="M6680 6536 c0 -7 9 -16 21 -19 15 -4 19 -2 15 9 -4 11 -1 14 12 10 9
-3 24 -1 32 4 11 7 2 10 -32 10 -34 0 -48 -4 -48 -14z"/>
<path d="M6838 6543 c6 -2 18 -2 25 0 6 3 1 5 -13 5 -14 0 -19 -2 -12 -5z"/>
<path d="M6812 6520 c0 -14 2 -19 5 -12 2 6 2 18 0 25 -3 6 -5 1 -5 -13z"/>
<path d="M6680 6500 c0 -5 5 -10 11 -10 5 0 7 5 4 10 -3 6 -8 10 -11 10 -2 0
-4 -4 -4 -10z"/>
<path d="M7318 6423 c23 -2 61 -2 85 0 23 2 4 4 -43 4 -47 0 -66 -2 -42 -4z"/>
<path d="M8960 6710 c0 -5 11 -10 25 -10 14 0 25 5 25 10 0 6 -11 10 -25 10
-14 0 -25 -4 -25 -10z"/>
<path d="M8983 6683 c-13 -2 -23 -9 -23 -15 0 -5 7 -7 16 -4 9 3 61 6 117 6
70 0 97 3 87 10 -15 9 -153 12 -197 3z"/>
<path d="M9200 6680 c0 -5 5 -10 10 -10 6 0 10 5 10 10 0 6 -4 10 -10 10 -5 0
-10 -4 -10 -10z"/>
<path d="M8862 6620 c0 -14 2 -19 5 -12 2 6 2 18 0 25 -3 6 -5 1 -5 -13z"/>
<path d="M5482 4830 c0 -14 2 -19 5 -12 2 6 2 18 0 25 -3 6 -5 1 -5 -13z"/>
<path d="M5523 4813 c15 -2 39 -2 55 0 15 2 2 4 -28 4 -30 0 -43 -2 -27 -4z"/>
<path d="M5481 4784 c0 -11 3 -14 6 -6 3 7 2 16 -1 19 -3 4 -6 -2 -5 -13z"/>
<path d="M4411 4253 c0 -13 2 -14 6 -4 5 11 7 11 14 0 7 -11 9 -10 9 4 0 9 -7
17 -15 17 -8 0 -15 -8 -14 -17z"/>
<path d="M5524 4066 c0 -13 5 -21 10 -18 17 10 61 9 69 -2 4 -6 7 0 5 14 -3
22 -9 25 -44 28 -39 3 -42 1 -40 -22z"/>
<path d="M5637 4084 c-4 -4 -7 -21 -7 -38 1 -27 2 -28 11 -13 6 10 8 25 5 33
-3 8 1 14 8 14 10 0 14 -20 15 -82 1 -45 4 -84 7 -87 2 -3 4 35 2 84 -2 72 -6
90 -18 93 -9 1 -19 0 -23 -4z"/>
<path d="M5503 4000 c0 -47 2 -66 4 -42 2 23 2 61 0 85 -2 23 -4 4 -4 -43z"/>
<path d="M5520 4013 c0 -8 5 -13 12 -11 18 6 21 25 3 25 -8 0 -15 -7 -15 -14z"/>
<path d="M5520 3925 c0 -8 -8 -15 -17 -16 -10 0 -13 -3 -6 -5 15 -6 53 13 53
26 0 6 -7 10 -15 10 -8 0 -15 -7 -15 -15z"/>
<path d="M3145 5730 c-3 -5 1 -10 10 -10 9 0 13 5 10 10 -3 6 -8 10 -10 10 -2
0 -7 -4 -10 -10z"/>
<path d="M3195 5730 c-3 -5 -1 -10 4 -10 6 0 11 5 11 10 0 6 -2 10 -4 10 -3 0
-8 -4 -11 -10z"/>
<path d="M1031 5474 c0 -11 3 -14 6 -6 3 7 2 16 -1 19 -3 4 -6 -2 -5 -13z"/>
<path d="M9738 5573 c7 -3 16 -2 19 1 4 3 -2 6 -13 5 -11 0 -14 -3 -6 -6z"/>
<path d="M168 5033 c7 -3 16 -2 19 1 4 3 -2 6 -13 5 -11 0 -14 -3 -6 -6z"/>
<path d="M160 5010 c0 -6 7 -10 15 -10 8 0 15 2 15 4 0 2 -7 6 -15 10 -8 3
-15 1 -15 -4z"/>
<path d="M333 4403 c15 -2 37 -2 50 0 12 2 0 4 -28 4 -27 0 -38 -2 -22 -4z"/>
<path d="M328 4383 c7 -3 16 -2 19 1 4 3 -2 6 -13 5 -11 0 -14 -3 -6 -6z"/>
<path d="M333 3803 c9 -2 25 -2 35 0 9 3 1 5 -18 5 -19 0 -27 -2 -17 -5z"/>
<path d="M568 3743 c7 -3 16 -2 19 1 4 3 -2 6 -13 5 -11 0 -14 -3 -6 -6z"/>
<path d="M358 3233 c23 -2 61 -2 85 0 23 2 4 4 -43 4 -47 0 -66 -2 -42 -4z"/>
<path d="M720 2603 c0 -15 59 -16 100 -3 30 10 21 12 -47 14 -37 1 -53 -2 -53
-11z"/>
<path d="M640 2568 c0 -5 18 -8 40 -8 22 0 40 2 40 4 0 2 -18 6 -40 8 -22 2
-40 0 -40 -4z"/>
<path d="M610 2549 c0 -5 5 -7 10 -4 6 3 10 8 10 11 0 2 -4 4 -10 4 -5 0 -10
-5 -10 -11z"/>
<path d="M848 2553 c6 -2 18 -2 25 0 6 3 1 5 -13 5 -14 0 -19 -2 -12 -5z"/>
<path d="M568 2543 c7 -3 16 -2 19 1 4 3 -2 6 -13 5 -11 0 -14 -3 -6 -6z"/>
<path d="M738 2543 c12 -2 32 -2 45 0 12 2 2 4 -23 4 -25 0 -35 -2 -22 -4z"/>
<path d="M7073 1498 c-2 -5 1 -8 7 -8 13 0 41 -26 40 -35 -1 -4 1 -9 4 -12 3
-3 4 4 1 16 -4 19 0 21 53 21 53 1 56 2 37 16 -21 15 -132 17 -142 2z m110 -5
c-13 -2 -33 -2 -45 0 -13 2 -3 4 22 4 25 0 35 -2 23 -4z"/>
<path d="M7238 1498 c10 -13 10 -17 -4 -22 -8 -3 -25 -6 -35 -6 -11 0 -18 -4
-14 -10 3 -5 13 -6 22 -3 11 4 14 3 9 -5 -5 -8 -2 -10 8 -6 9 3 13 10 10 15
-3 5 2 9 11 9 20 0 16 31 -5 38 -12 4 -13 3 -2 -10z"/>
<path d="M7077 1460 c-10 -35 -9 -120 2 -120 4 0 7 24 5 53 -1 28 0 40 2 25 7
-35 20 -37 20 -3 0 14 -3 25 -7 25 -4 0 -9 10 -11 23 -3 22 -4 21 -11 -3z"/>
<path d="M7253 1405 c0 -33 2 -45 4 -27 2 18 2 45 0 60 -2 15 -4 0 -4 -33z"/>
<path d="M7156 1413 c-6 -14 -5 -15 5 -6 7 7 10 15 7 18 -3 3 -9 -2 -12 -12z"/>
<path d="M8242 1960 c0 -19 2 -27 5 -17 2 9 2 25 0 35 -3 9 -5 1 -5 -18z"/>
<path d="M8506 2005 c-3 -9 -5 -33 -5 -53 2 -33 2 -32 9 13 8 53 6 66 -4 40z"/>
<path d="M8552 1980 c0 -14 2 -19 5 -12 2 6 2 18 0 25 -3 6 -5 1 -5 -13z"/>
<path d="M8541 1883 c-1 -23 3 -44 7 -47 4 -2 6 12 4 32 -5 56 -10 62 -11 15z"/>
<path d="M8503 1800 c0 -25 2 -35 4 -22 2 12 2 32 0 45 -2 12 -4 2 -4 -23z"/>
<path d="M9680 6220 c0 -5 18 -10 40 -10 22 0 40 5 40 10 0 6 -18 10 -40 10
-22 0 -40 -4 -40 -10z"/>
<path d="M9680 6188 c0 -11 68 -10 74 0 3 5 -13 9 -34 8 -22 0 -40 -4 -40 -8z"/>
<path d="M9888 6193 c6 -2 18 -2 25 0 6 3 1 5 -13 5 -14 0 -19 -2 -12 -5z"/>
<path d="M9805 6150 c3 -5 8 -10 11 -10 2 0 4 5 4 10 0 6 -5 10 -11 10 -5 0
-7 -4 -4 -10z"/>
<path d="M9745 6070 c3 -5 8 -10 11 -10 2 0 4 5 4 10 0 6 -5 10 -11 10 -5 0
-7 -4 -4 -10z"/>
<path d="M10135 3230 c-26 -7 -24 -8 20 -9 36 0 46 2 35 9 -8 5 -17 9 -20 9
-3 -1 -18 -5 -35 -9z"/>
<path d="M10080 3196 c0 -2 7 -7 16 -10 8 -3 12 -2 9 4 -6 10 -25 14 -25 6z"/>
<path d="M10145 3190 c-17 -6 -15 -9 16 -15 20 -4 47 -5 60 -2 15 3 6 5 -21 7
-38 2 -41 3 -20 10 20 6 21 8 5 8 -11 0 -29 -3 -40 -8z"/>
<path d="M10048 3173 c7 -3 16 -2 19 1 4 3 -2 6 -13 5 -11 0 -14 -3 -6 -6z"/>
</g>
</svg>
